#!OML:ASF F:\VICON\USERDATA\INSTALL\rory3\rory3.ASF
:FULLY-SPECIFIED
:DEGREES
3048
root -1.56087 17.5651 -1.46925 9.17209 17.857 -11.3593
lowerback 4.8189 8.13096 -4.0049
upperback 2.17254 10.6156 -7.45198
thorax 0.30407 5.34616 -5.96382
lowerneck -24.0915 4.4646 -8.41565
upperneck 27.9688 12.1397 -6.09883
head 13.5275 3.51995 1.21634
rclavicle 0 -2.8625e-014
rhumerus 1.99314 47.2861 -88.81
rradius 52.1392
rwrist 24.3366
rhand -26.4165 5.13957
rfingers 7.12502
rthumb 0.143469 -24.8401
lclavicle 0 -2.8625e-014
lhumerus 0.39572 14.3482 50.5109
lradius 48.163
lwrist -8.88386
lhand -15.9754 23.3001
lfingers 7.12502
lthumb 10.2238 53.0317
rfemur -16.8851 -8.52703 23.4561
rtibia 24.44
rfoot -19.2092 -12.7254
rtoes 2.46509
lfemur -31.6773 -3.40154 2.13456
ltibia 37.3635
lfoot -15.1831 -1.12116
ltoes -26.1968
3049
root -1.57426 17.5641 -1.46736 9.3159 18.5019 -11.5763
lowerback 4.96197 8.26698 -4.13985
upperback 2.15082 10.7779 -7.75711
thorax 0.253109 5.43228 -6.24188
lowerneck -23.8176 4.46634 -8.32573
upperneck 28.2348 12.1283 -6.10094
head 13.5902 3.51616 1.19565
rclavicle -6.04305e-014 9.22361e-014
rhumerus 2.88797 47.3134 -88.4877
rradius 52.1744
rwrist 24.6064
rhand -26.673 4.86674
rfingers 7.12502
rthumb -0.104294 -25.113
lclavicle -6.04305e-014 9.22361e-014
lhumerus 0.90334 13.9683 50.3467
lradius 48.1899
lwrist -8.73899
lhand -15.4759 22.8446
lfingers 7.12502
lthumb 10.7057 52.5518
rfemur -17.0486 -8.92872 23.8464
rtibia 24.3409
rfoot -19.3041 -12.8745
rtoes 2.51934
lfemur -32.2634 -3.50969 2.47473
ltibia 37.4462
lfoot -15.1484 -1.47708
ltoes -26.3258
3050
root -1.58888 17.5629 -1.46581 9.43448 19.2043 -11.8483
lowerback 5.11334 8.37628 -4.22703
upperback 2.16516 10.9088 -8.01658
thorax 0.233408 5.50301 -6.49564
lowerneck -23.5834 4.48883 -8.37438
upperneck 28.3898 12.1608 -6.03235
head 13.5982 3.53408 1.23046
rclavicle 7.79236e-014 3.81667e-014
rhumerus 3.85212 47.3748 -88.104
rradius 52.1581
rwrist 24.8726
rhand -26.9172 4.79345
rfingers 7.12502
rthumb -0.340081 -25.186
lclavicle 7.79236e-014 3.81667e-014
lhumerus 1.44418 13.6314 50.2309
lradius 48.1645
lwrist -8.63914
lhand -15.3929 22.583
lfingers 7.12502
lthumb 10.7858 52.2861
rfemur -17.1878 -9.23675 24.2912
rtibia 24.226
rfoot -19.5483 -13.0885
rtoes 2.6967
lfemur -32.8644 -3.678 2.89498
ltibia 37.5258
lfoot -15.1779 -1.85256
ltoes -26.4783
3051
root -1.59961 17.5605 -1.46677 9.423 19.9498 -12.2195
lowerback 5.2994 8.48476 -4.17783
upperback 2.27024 11.0514 -8.23423
thorax 0.30872 5.58231 -6.77548
lowerneck -23.3938 4.50133 -8.38222
upperneck 28.4945 12.1597 -5.96735
head 13.5965 3.54327 1.25221
rclavicle -9.54166e-015 7.31528e-014
rhumerus 4.97804 47.3932 -87.5374
rradius 52.0717
rwrist 25.3087
rhand -27.3613 4.53211
rfingers 7.12502
rthumb -0.769059 -25.4462
lclavicle -9.54166e-015 7.31528e-014
lhumerus 2.10429 13.3859 50.175
lradius 48.1122
lwrist -8.61794
lhand -15.4978 22.4251
lfingers 7.12502
lthumb 10.6846 52.1334
rfemur -17.2276 -9.71127 24.8174
rtibia 24.0953
rfoot -19.6271 -13.2206
rtoes 2.4569
lfemur -33.3932 -3.9375 3.40404
ltibia 37.61
lfoot -15.1262 -2.20147
ltoes -26.5752
3052
root -1.61207 17.5571 -1.46969 9.3901 20.6746 -12.6035
lowerback 5.59531 8.57711 -4.14951
upperback 2.39098 11.1619 -8.45913
thorax 0.336683 5.64587 -7.06952
lowerneck -23.3402 4.52493 -8.25735
upperneck 28.5766 12.1816 -6.03061
head 13.6337 3.5537 1.21246
rclavicle 1.19271e-013 -1.17681e-013
rhumerus 6.31197 47.2592 -86.8822
rradius 51.9576
rwrist 25.5573
rhand -27.3171 4.76123
rfingers 7.12502
rthumb -0.726309 -25.2173
lclavicle 1.19271e-013 -1.17681e-013
lhumerus 2.76543 13.27 50.096
lradius 48.1317
lwrist -8.53941
lhand -15.4158 22.281
lfingers 7.12502
lthumb 10.7637 51.9852
rfemur -17.2679 -10.1421 25.3607
rtibia 23.9466
rfoot -19.6879 -13.4163
rtoes 2.2777
lfemur -33.9187 -4.20147 3.93425
ltibia 37.7008
lfoot -15.0133 -2.51106
ltoes -26.5269
3053
root -1.63073 17.5554 -1.47017 9.44609 21.3948 -12.9606
lowerback 5.88296 8.61966 -4.29124
upperback 2.48091 11.1907 -8.59693
thorax 0.279175 5.66225 -7.18317
lowerneck -23.3122 4.58016 -8.33467
upperneck 28.5677 12.3131 -6.09052
head 13.6255 3.59631 1.22384
rclavicle 2.8625e-014 -2.8625e-014
rhumerus 7.66784 47.1499 -86.1596
rradius 51.8485
rwrist 25.6736
rhand -26.7736 5.64195
rfingers 7.12502
rthumb -0.201395 -24.3377
lclavicle 2.8625e-014 -2.8625e-014
lhumerus 3.47628 13.6155 50.3012
lradius 47.9699
lwrist -8.77705
lhand -15.6573 22.27
lfingers 7.12502
lthumb 10.5308 51.9861
rfemur -17.4091 -10.5118 25.9164
rtibia 23.8142
rfoot -19.8406 -13.577
rtoes 2.55034
lfemur -34.5221 -4.44118 4.48037
ltibia 37.7835
lfoot -14.9439 -2.79982
ltoes -26.1535
3054
root -1.64748 17.555 -1.46868 9.51333 22.0883 -13.2712
lowerback 6.1265 8.61071 -4.48533
upperback 2.58162 11.152 -8.69966
thorax 0.233547 5.64287 -7.2213
lowerneck -23.3126 4.63994 -8.55973
upperneck 28.573 12.5039 -6.12079
head 13.6181 3.65063 1.28078
rclavicle 4.6118e-014 4.13472e-014
rhumerus 8.97388 47.2428 -85.5126
rradius 51.7428
rwrist 25.8275
rhand -26.4859 5.79829
rfingers 7.12502
rthumb 0.0764458 -24.1814
lclavicle 4.6118e-014 4.13472e-014
lhumerus 4.19308 14.3314 50.6458
lradius 47.6116
lwrist -9.32059
lhand -15.8366 22.034
lfingers 7.12502
lthumb 10.3578 51.7589
rfemur -17.5706 -10.9557 26.4256
rtibia 23.7232
rfoot -19.8106 -13.7944
rtoes 1.91026
lfemur -35.0867 -4.6385 4.95644
ltibia 37.8451
lfoot -14.9074 -3.11886
ltoes -25.8395
3055
root -1.66412 17.5533 -1.46534 9.60386 22.8184 -13.4958
lowerback 6.38232 8.57239 -4.68316
upperback 2.63457 11.0692 -8.9093
thorax 0.149311 5.60427 -7.37528
lowerneck -23.2136 4.70761 -8.63138
upperneck 28.6084 12.6253 -6.11577
head 13.6071 3.69765 1.3122
rclavicle -7.15625e-014 3.18055e-015
rhumerus 10.0932 47.4192 -85.1804
rradius 51.6964
rwrist 25.9787
rhand -26.5287 4.98414
rfingers 7.12502
rthumb 0.0351229 -24.9956
lclavicle -7.15625e-014 3.18055e-015
lhumerus 4.67312 14.7632 50.6123
lradius 47.444
lwrist -9.64398
lhand -15.4882 21.6294
lfingers 7.12502
lthumb 10.6939 51.3372
rfemur -17.745 -11.4387 26.8497
rtibia 23.6692
rfoot -19.8499 -13.9593
rtoes 1.61526
lfemur -35.6519 -4.88888 5.34402
ltibia 37.8882
lfoot -14.872 -3.40784
ltoes -26.0065
3056
root -1.68199 17.5483 -1.46019 9.64087 23.6354 -13.8405
lowerback 6.61884 8.5572 -4.80216
upperback 2.6979 11.025 -9.10172
thorax 0.101517 5.58645 -7.55009
lowerneck -23.2054 4.74641 -8.66121
upperneck 28.7828 12.657 -5.92081
head 13.6566 3.72293 1.39946
rclavicle -2.54444e-014 -2.22639e-014
rhumerus 11.1819 47.4964 -84.7855
rradius 51.7404
rwrist 26.1142
rhand -26.5095 4.43916
rfingers 7.12502
rthumb 0.0536154 -25.5406
lclavicle -2.54444e-014 -2.22639e-014
lhumerus 5.04531 14.6222 50.3384
lradius 47.5397
lwrist -9.45688
lhand -15.3094 21.4047
lfingers 7.12502
lthumb 10.8663 51.1036
rfemur -17.9328 -11.8693 27.4023
rtibia 23.6475
rfoot -20.0999 -14.1352
rtoes 1.98258
lfemur -36.2701 -5.13882 5.87044
ltibia 37.9303
lfoot -14.8036 -3.76723
ltoes -26.0436
3057
root -1.69717 17.5429 -1.45933 9.67734 24.3943 -14.2117
lowerback 6.91162 8.62244 -4.7884
upperback 2.75749 11.091 -9.34679
thorax 0.0666355 5.62845 -7.86752
lowerneck -23.1397 4.73536 -8.59361
upperneck 28.8771 12.5672 -5.75481
head 13.6695 3.71145 1.43632
rclavicle 9.70069e-014 -9.54166e-015
rhumerus 12.2964 47.2071 -84.4309
rradius 51.6147
rwrist 26.2598
rhand -26.5338 4.59205
rfingers 7.12502
rthumb 0.0301468 -25.3877
lclavicle 9.70069e-014 -9.54166e-015
lhumerus 5.72552 14.272 50.225
lradius 47.5464
lwrist -9.38569
lhand -15.4757 21.7812
lfingers 7.12502
lthumb 10.7059 51.4884
rfemur -18.1877 -12.3069 27.9616
rtibia 23.6596
rfoot -20.3011 -14.291
rtoes 1.91777
lfemur -36.8969 -5.31306 6.38893
ltibia 37.9562
lfoot -14.7159 -4.12994
ltoes -25.8623
3058
root -1.71124 17.5386 -1.46498 9.91012 24.9969 -14.5218
lowerback 7.0289 8.65516 -4.8687
upperback 2.84508 11.1288 -9.56953
thorax 0.132894 5.65452 -8.07765
lowerneck -23.2849 4.7379 -8.67642
upperneck 28.9622 12.5938 -5.62856
head 13.7179 3.71977 1.50875
rclavicle -3.18055e-015 4.45278e-014
rhumerus 13.639 47.0471 -83.8843
rradius 51.4156
rwrist 26.4646
rhand -26.6044 4.6263
rfingers 7.12502
rthumb -0.0380167 -25.3534
lclavicle -3.18055e-015 4.45278e-014
lhumerus 6.51801 14.5443 50.4373
lradius 47.4323
lwrist -9.72736
lhand -15.6345 22.2609
lfingers 7.12502
lthumb 10.5527 51.976
rfemur -18.7021 -12.5332 28.4572
rtibia 23.7323
rfoot -20.512 -14.4262
rtoes 2.31212
lfemur -37.6373 -5.34232 6.82641
ltibia 37.965
lfoot -14.5678 -4.38238
ltoes -25.8387
3059
root -1.72836 17.5335 -1.46328 10.0036 25.8249 -14.8576
lowerback 7.21118 8.63134 -5.10974
upperback 3.01291 11.0781 -9.62943
thorax 0.173796 5.6285 -8.0284
lowerneck -23.3622 4.70205 -8.82803
upperneck 28.9392 12.5986 -5.59779
head 13.7129 3.70931 1.5471
rclavicle 1.39944e-013 -4.13472e-014
rhumerus 14.9754 46.9784 -83.1249
rradius 51.2989
rwrist 26.5714
rhand -26.5004 4.50605
rfingers 7.12502
rthumb 0.0624202 -25.4737
lclavicle 1.39944e-013 -4.13472e-014
lhumerus 7.18433 14.8413 50.7313
lradius 47.3458
lwrist -9.89685
lhand -15.7512 22.3225
lfingers 7.12502
lthumb 10.4402 52.0433
rfemur -19.0495 -12.8549 29.0013
rtibia 23.8379
rfoot -20.8244 -14.6844
rtoes 2.34242
lfemur -38.3263 -5.46195 7.2842
ltibia 37.9551
lfoot -14.4302 -4.75596
ltoes -26.08
3060
root -1.74841 17.5224 -1.46545 10.0922 26.7722 -15.167
lowerback 7.58185 8.60512 -5.30162
upperback 3.12735 10.9996 -9.734
thorax 0.0718218 5.59029 -8.09013
lowerneck -23.3835 4.59037 -8.93568
upperneck 28.9388 12.4693 -5.54904
head 13.7089 3.64956 1.5608
rclavicle -1.41535e-013 9.22361e-014
rhumerus 16.2375 46.8531 -82.3611
rradius 51.2373
rwrist 26.4467
rhand -26.3145 4.33622
rfingers 7.12502
rthumb 0.242012 -25.6434
lclavicle -1.41535e-013 9.22361e-014
lhumerus 7.83549 14.7564 50.8749
lradius 47.2754
lwrist -9.80688
lhand -15.6976 22.2621
lfingers 7.12502
lthumb 10.4919 51.9803
rfemur -19.3968 -13.275 29.5354
rtibia 23.9223
rfoot -21.2092 -14.9042
rtoes 2.71609
lfemur -39.0761 -5.6536 7.74569
ltibia 37.9495
lfoot -14.3371 -5.19811
ltoes -26.2702
3061
root -1.766 17.513 -1.46725 10.1507 27.6555 -15.5458
lowerback 7.96055 8.57403 -5.32131
upperback 3.23036 10.9264 -9.88189
thorax -0.00450931 5.55997 -8.29162
lowerneck -23.5136 4.48486 -9.11015
upperneck 29.0553 12.3617 -5.36588
head 13.7599 3.59754 1.64617
rclavicle -5.56597e-014 -6.36111e-014
rhumerus 17.5129 46.6435 -81.7555
rradius 51.0654
rwrist 26.4816
rhand -26.4983 3.73348
rfingers 7.12502
rthumb 0.0644698 -26.2463
lclavicle -5.56597e-014 -6.36111e-014
lhumerus 8.48604 14.6196 50.9501
lradius 47.2422
lwrist -9.62836
lhand -15.659 22.2553
lfingers 7.12502
lthumb 10.5291 51.9716
rfemur -19.7641 -13.7526 30.1415
rtibia 23.9833
rfoot -21.421 -15.1119
rtoes 2.53029
lfemur -39.792 -5.87609 8.30571
ltibia 37.9537
lfoot -14.2797 -5.5659
ltoes -26.2092
3062
root -1.77794 17.5098 -1.47113 10.2374 28.4193 -16.0148
lowerback 8.24785 8.58473 -5.22145
upperback 3.27888 10.9233 -10.0478
thorax -0.0552256 5.56727 -8.57009
lowerneck -23.4818 4.43125 -9.1597
upperneck 29.1096 12.2549 -5.20731
head 13.759 3.5671 1.69612
rclavicle 6.36111e-015 2.8625e-014
rhumerus 18.5776 46.2471 -81.355
rradius 50.8018
rwrist 26.7723
rhand -27.1579 3.12182
rfingers 7.12502
rthumb -0.572592 -26.8572
lclavicle 6.36111e-015 2.8625e-014
lhumerus 9.00221 14.3057 50.9276
lradius 47.3354
lwrist -9.31203
lhand -15.7197 22.1572
lfingers 7.12502
lthumb 10.4705 51.8765
rfemur -20.2295 -14.2314 30.8321
rtibia 24.0306
rfoot -21.4699 -15.2621
rtoes 2.42681
lfemur -40.6098 -6.05268 8.94963
ltibia 37.9748
lfoot -14.1433 -5.88178
ltoes -25.7245
